# File created by Blade
# Date/Time:  Wed Apr 08 14:47:20 2015
# Frame Rate: 120.000 fps
#------------------------------------------------------
:FULLY-SPECIFIED
:DEGREES
3797
root 0.458129 32.769330 5.866261 9.715582 5.979023 -0.074505
Spine -10.753961 -4.630824 -1.227291
Head 9.661435 -7.948966 4.414268
LeftShoulder -16.709028 49.480672 3.825055
LeftArm 52.617977 15.308341 -71.040207
LeftForeArm -2.971932 -0.000000 28.049406
LeftHand 6.989677 -0.000000 -5.833756
LeftHandThumb1 -26.253704 0.000000 33.147579
RightShoulder -3.827658 -12.943698 -14.616342
RightArm 18.229263 -30.343227 82.481803
RightForeArm 1.573236 -0.000000 25.289028
RightHand 6.467895 -0.000000 7.234814
RightHandThumb1 -24.326973 -0.000000 -32.862282
LeftUpLeg -12.246422 3.730268 -1.329174
LeftLeg 10.938067 -0.000000 -0.000000
LeftFoot -12.371364 15.947644 -16.939640
LeftToeBase -6.750038 -0.000000 0.000000
RightUpLeg -6.415644 -13.058872 2.752472
RightLeg 7.360954 -0.000000 -0.000000
RightFoot -13.612766 -13.192140 3.791243
RightToeBase -0.147603 -0.000000 0.000000
3798
root 0.469663 32.773068 5.886536 9.742706 5.887617 -0.022191
Spine -10.856134 -4.631109 -1.309969
Head 9.817596 -7.934540 4.388060
LeftShoulder -16.734612 49.540070 3.786753
LeftArm 52.569821 15.261399 -71.057184
LeftForeArm -2.995797 -0.000000 27.994271
LeftHand 6.987500 -0.000000 -5.887215
LeftHandThumb1 -26.253704 0.000000 33.147579
RightShoulder -3.823189 -13.076988 -14.585814
RightArm 18.190276 -30.289644 82.381113
RightForeArm 1.813687 -0.000000 24.497793
RightHand 6.359866 -0.000000 7.467316
RightHandThumb1 -24.326973 -0.000000 -32.862282
LeftUpLeg -12.008902 3.841175 -1.413921
LeftLeg 10.490174 -0.000000 -0.000000
LeftFoot -12.204280 15.961862 -16.831653
LeftToeBase -6.733969 -0.000000 0.000000
RightUpLeg -6.301570 -13.014321 2.661050
RightLeg 7.148666 -0.000000 -0.000000
RightFoot -13.521158 -13.165962 3.812184
RightToeBase -0.194233 -0.000000 0.000000
3799
root 0.479053 32.775916 5.905107 9.792504 5.799374 0.005441
Spine -10.993293 -4.648358 -1.354181
Head 10.003668 -7.905172 4.327000
LeftShoulder -16.773385 49.620957 3.713124
LeftArm 52.514413 15.259408 -70.951794
LeftForeArm -3.147757 -0.000000 28.024499
LeftHand 6.907207 -0.000000 -5.776278
LeftHandThumb1 -26.253704 0.000000 33.147579
RightShoulder -3.816240 -13.192254 -14.574824
RightArm 18.121374 -30.272871 82.294145
RightForeArm 2.131533 -0.000000 23.722994
RightHand 6.287765 -0.000000 7.514705
RightHandThumb1 -24.326973 -0.000000 -32.862282
LeftUpLeg -11.796060 3.979479 -1.474675
LeftLeg 10.031957 -0.000000 -0.000000
LeftFoot -12.030405 15.935674 -16.725392
LeftToeBase -6.736005 -0.000000 0.000000
RightUpLeg -6.198384 -12.908260 2.601764
RightLeg 6.899007 -0.000000 -0.000000
RightFoot -13.433932 -13.177635 3.886536
RightToeBase -0.198618 -0.000000 0.000000
3800
root 0.486597 32.779186 5.925193 9.847206 5.719866 0.035375
Spine -11.138629 -4.675685 -1.412946
Head 10.186423 -7.874676 4.304077
LeftShoulder -16.804848 49.711104 3.685600
LeftArm 52.486955 15.188571 -71.038566
LeftForeArm -3.153586 -0.000000 27.878463
LeftHand 6.971798 -0.000000 -5.867289
LeftHandThumb1 -26.253704 0.000000 33.147579
RightShoulder -3.822222 -13.325455 -14.538096
RightArm 18.045467 -30.219218 82.176393
RightForeArm 2.733554 0.000000 22.914799
RightHand 6.668535 -0.000000 7.863875
RightHandThumb1 -24.326973 -0.000000 -32.862282
LeftUpLeg -11.579200 4.101289 -1.529854
LeftLeg 9.559646 -0.000000 -0.000000
LeftFoot -11.864190 15.899584 -16.685005
LeftToeBase -6.763532 -0.000000 0.000000
RightUpLeg -6.090930 -12.801339 2.546252
RightLeg 6.633850 -0.000000 -0.000000
RightFoot -13.326944 -13.190555 3.945763
RightToeBase -0.186217 -0.000000 0.000000
3801
root 0.495860 32.781345 5.943682 9.887881 5.627544 0.073718
Spine -11.254907 -4.676953 -1.476454
Head 10.335186 -7.839215 4.276319
LeftShoulder -16.824732 49.779529 3.650058
LeftArm 52.442383 15.146427 -71.056862
LeftForeArm -3.143335 -0.000000 27.792359
LeftHand 6.981685 -0.000000 -5.947709
LeftHandThumb1 -26.253704 0.000000 33.147579
RightShoulder -3.854069 -13.430488 -14.491578
RightArm 17.921255 -30.153513 82.084420
RightForeArm 3.010140 -0.000000 22.235239
RightHand 6.653707 -0.000000 7.977794
RightHandThumb1 -24.326973 -0.000000 -32.862282
LeftUpLeg -11.350141 4.233762 -1.597814
LeftLeg 9.086835 -0.000000 -0.000000
LeftFoot -11.695231 15.875632 -16.609804
LeftToeBase -6.767146 -0.000000 0.000000
RightUpLeg -5.969883 -12.648901 2.474837
RightLeg 6.368758 -0.000000 -0.000000
RightFoot -13.239317 -13.261865 3.995433
RightToeBase -0.178154 -0.000000 0.000000
3802
root 0.502779 32.782292 5.960454 9.932231 5.536348 0.108435
Spine -11.372346 -4.699005 -1.534466
Head 10.482008 -7.788166 4.253398
LeftShoulder -16.845017 49.846583 3.617711
LeftArm 52.380561 15.102287 -71.071670
LeftForeArm -3.171810 -0.000000 27.717687
LeftHand 7.022566 -0.000000 -5.990322
LeftHandThumb1 -26.253704 0.000000 33.147579
RightShoulder -3.863179 -13.536225 -14.468921
RightArm 17.776730 -30.052362 82.025977
RightForeArm 3.119761 -0.000000 21.595715
RightHand 6.420185 0.000000 8.017752
RightHandThumb1 -24.326973 -0.000000 -32.862282
LeftUpLeg -11.140249 4.342660 -1.652249
LeftLeg 8.641707 -0.000000 -0.000000
LeftFoot -11.539695 15.864766 -16.565358
LeftToeBase -6.754285 -0.000000 0.000000
RightUpLeg -5.853478 -12.454775 2.411477
RightLeg 6.095140 -0.000000 -0.000000
RightFoot -13.150354 -13.358017 4.072544
RightToeBase -0.142497 -0.000000 0.000000
3803
root 0.512308 32.782977 5.977261 9.979443 5.437045 0.164424
Spine -11.491565 -4.723859 -1.604787
Head 10.624323 -7.721850 4.219744
LeftShoulder -16.900665 49.928166 3.549236
LeftArm 52.350645 15.061225 -71.073565
LeftForeArm -3.166980 -0.000000 27.619707
LeftHand 7.032601 -0.000000 -6.087841
LeftHandThumb1 -26.253704 0.000000 33.147579
RightShoulder -3.878390 -13.669184 -14.428366
RightArm 17.647250 -29.856874 81.972447
RightForeArm 3.056221 0.000000 20.986245
RightHand 6.123539 -0.000000 7.378020
RightHandThumb1 -24.326973 -0.000000 -32.862282
LeftUpLeg -10.921256 4.423304 -1.730695
LeftLeg 8.177762 -0.000000 -0.000000
LeftFoot -11.376619 15.868279 -16.524547
LeftToeBase -6.745794 -0.000000 0.000000
RightUpLeg -5.754249 -12.205281 2.316864
RightLeg 5.867065 -0.000000 -0.000000
RightFoot -13.103976 -13.513719 4.156739
RightToeBase -0.172158 -0.000000 0.000000
3804
root 0.516962 32.784288 5.994370 10.035345 5.379983 0.164810
Spine -11.625592 -4.790640 -1.606546
Head 10.755903 -7.656741 4.184819
LeftShoulder -16.947304 49.959478 3.493074
LeftArm 52.263528 15.046614 -71.082554
LeftForeArm -3.177674 -0.000000 27.518509
LeftHand 6.982539 -0.000000 -6.169176
LeftHandThumb1 -26.253704 0.000000 33.147579
RightShoulder -3.895496 -13.799329 -14.418242
RightArm 17.478063 -29.659160 81.945863
RightForeArm 2.793570 -0.000000 20.475442
RightHand 5.925888 -0.000000 6.292684
RightHandThumb1 -24.326973 -0.000000 -32.862282
LeftUpLeg -10.743523 4.520110 -1.743494
LeftLeg 7.763401 -0.000000 -0.000000
LeftFoot -11.223286 15.816860 -16.483384
LeftToeBase -6.743244 -0.000000 0.000000
RightUpLeg -5.668901 -12.201767 2.309244
RightLeg 5.617821 -0.000000 -0.000000
RightFoot -12.997760 -13.490219 4.141890
RightToeBase -0.186068 -0.000000 0.000000
3805
root 0.520299 32.784081 6.009046 10.093509 5.300520 0.152290
Spine -11.757257 -4.836746 -1.596130
Head 10.888293 -7.601448 4.131811
LeftShoulder -16.976614 50.014318 3.445653
LeftArm 52.181002 15.031959 -71.079322
LeftForeArm -3.219797 -0.000000 27.439060
LeftHand 7.009123 -0.000000 -6.157653
LeftHandThumb1 -26.253704 0.000000 33.147579
RightShoulder -3.921373 -13.935060 -14.392224
RightArm 17.326306 -29.442873 81.902340
RightForeArm 2.916874 -0.000000 19.982156
RightHand 5.664637 0.000000 5.804244
RightHandThumb1 -24.326973 -0.000000 -32.862282
LeftUpLeg -10.584077 4.648695 -1.750695
LeftLeg 7.379982 -0.000000 -0.000000
LeftFoot -11.118995 15.769338 -16.447797
LeftToeBase -6.699133 -0.000000 0.000000
RightUpLeg -5.588096 -12.332680 2.325652
RightLeg 5.342014 -0.000000 -0.000000
RightFoot -12.839174 -13.336999 4.054338
RightToeBase -0.279841 -0.000000 0.000000
